<?xml version="1.0" encoding="utf-8"?>
<!-- Generator: Adobe Illustrator 21.0.2, SVG Export Plug-In . SVG Version: 6.00 Build 0)  -->
<svg version="1.1" id="Layer_1" xmlns="http://www.w3.org/2000/svg" xmlns:xlink="http://www.w3.org/1999/xlink" x="0px" y="0px"
	 viewBox="0 0 1057.4 318.6" style="enable-background:new 0 0 1057.4 318.6;" xml:space="preserve">
<g>
	<path d="M0,102.1l2.7-73.4v-2.5c0-13.3,2.9-19.9,8.8-19.9C16.9,6.3,24,18.6,33,43.4c16.4,44.9,36.1,119.1,59,222.5l0.4,2l1.6-139.5
		V10C95.5,3.3,99.9,0,107,0c7.2,0,10.7,5.2,10.7,15.6V18c-1.6,3.3-2.3,7.2-2.3,11.7l-2.5,147.9v122.3c0,4-1.1,8-3.3,11.9
		c-2.2,3.9-5,5.9-8.2,5.9c-5.6,0-16.5-27.4-32.8-82.3C52.3,180.4,36.2,121.4,20.3,58.2v131.3c0,12.8,0.9,31.8,2.8,57
		c1.9,25.3,2.8,44.3,2.8,57c0,2.5-1.5,4.5-4.5,6.2c-3,1.6-6.8,2.4-11.4,2.4c-4.6,0-6.9-2.1-6.9-6.3l2-28.7c0-13.8-0.8-36.2-2.5-67.2
		C0.8,179,0,160,0,153.1V102.1z"/>
	<path d="M232,230.5l4.3,24.6c0,3.3,1.3,11.2,3.8,23.8c2.5,12.6,3.8,20.9,3.8,24.8v0.4c0,5.9-2.2,9.6-6.6,11.3
		c-5.6,0-10-0.9-13.1-2.7s-4.7-5.3-4.7-10.5c0-11.3-2-27.8-5.9-49.4l-39.5-5.9c-2.5,8.9-4.4,18.6-5.7,29.1
		c-1.3,10.5-2.5,18.2-3.7,23c-2.3,9.9-6.7,14.8-13.1,14.8c-3.1,0-6-1-8.7-3c-2.7-2-4-4.6-4-7.7l1-3.5c18-69.4,31.3-137,40-202.7
		c0.3-1.8,0.6-7.2,1.2-16c1.3-19.5,3.8-32,7.4-37.3h13.5c3.6,0,6.8,0.8,9.6,2.5c2.7,1.7,4.1,4.2,4.1,7.6c0,20.3,2.7,50.5,8.1,90.4
		C229.3,184.1,232,212.9,232,230.5z M211.1,238.5c-0.8-3.9-1.2-10.7-1.2-20.4c0-9.7-0.6-21.7-1.7-36.1c-1.1-14.4-2.7-31.1-4.8-50.2
		c-2.1-19.1-3.5-32.9-4.3-41.5c-12.1,67.1-19.9,114.3-23.4,141.8C180.3,235,192.1,237.2,211.1,238.5z"/>
	<path d="M266.2,294.9l16.6,2.9c5.1,0,9.5-2.2,13.3-6.6c3.8-4.4,6.6-10,8.4-16.6c3.5-12.8,5.3-24.1,5.3-33.9
		c0-9.8-1.6-19.6-4.9-29.2c-3.3-9.6-7.3-18.6-12-26.9c-4.8-8.3-9.5-16.7-14.2-25.3c-11.2-20.3-16.8-40.2-16.8-59.8
		c0-12,2-22.6,6.1-31.8C275.5,50.6,285.5,42,298,42c4.7,0,9.1,1.5,13.4,4.5c4.2,3,6.3,6.3,6.3,9.8c0,6.1-3.3,9.2-9.8,9.2
		c-2.9,0-5.7-0.8-8.4-2.3c-8.5,0.4-14.2,9.8-17.2,28.3c-0.7,4-1,8.8-1,14.2c0,5.4,1.2,12.1,3.5,20c2.3,7.9,5.3,15,8.9,21.2
		c3.6,6.2,7.4,13,11.5,20.5c4.1,7.5,8,14.7,11.6,21.8c8.3,16.3,12.4,34.9,12.3,55.9c0.1,16.1-3.6,31.6-11.1,46.3
		c-3.6,7.3-8.8,13.3-15.5,17.9c-6.7,4.6-14.4,7-22.9,7.1v1c-10.9-1.6-16.9-6.7-18-15.4L266.2,294.9z"/>
	<path d="M348.2,215l-0.2-23.4V182c0-39.3,2-66.7,5.9-82c4.7-19,11.2-32.2,19.5-39.5c11.3-10.2,25.6-15.2,43-15.2
		c4.2,0,7.3,1,9.3,2.9c2,2,3,4.3,3,7s-0.8,5.2-2.4,7.3c-1.6,2.1-3.7,3.3-6.2,3.4h-18.8c-5.5,0-10.2,3.5-14.3,10.5
		c-3.9,7-6.8,15.6-8.6,25.8c-3.4,19.3-5,35.2-4.9,47.9v2l-1.8,77.1c0,16.3,0.9,27.5,2.6,33.8s3.6,11.3,5.5,15.1
		c1.9,3.8,4.1,7,6.7,9.5c6,5.7,13.7,8.6,23,8.6c3.1,0,6-1.2,8.6-3.5c3.1,0,5.9,0.7,8.4,2.1c2.5,1.4,3.7,3.6,3.7,6.6
		c0,10.5-7.4,15.8-22.1,15.8c-6,0-12.3-0.9-18.8-2.6c-6.6-1.8-11.5-3.7-14.7-5.8C357.1,297.5,348.2,266.2,348.2,215z"/>
	<path d="M493.6,178.7l2,85v11.9l-0.2,11.1h5.3l11.5-0.4c10.9,0,16.4,3.3,16.4,10c0,3.4-1.3,6.3-4,8.7c-2.7,2.4-5.8,3.6-9.3,3.6
		h-17.6c-12.1,0-19.9-0.3-23.2-0.8c-2.1,0.3-3.7,0.4-4.9,0.4c-9.5,0-14.3-3-14.3-9c0-2.5,0.8-4.8,2.3-7c1.6-2.2,3.1-3.4,4.7-3.5
		h11.3l0.8-5.3l-2.7-85l2.1-89.1c0-15.2-0.7-29.6-2-43h-7.6l-9.2,0.4c-3.9,0-7-0.7-9.2-2.2c-2.2-1.5-3.3-4.3-3.3-8.5
		c0-6.1,6.6-9.2,19.7-9.2H510c10.8,0,16.2,2.8,16.2,8.4c0,2.5-1.2,4.8-3.5,6.8c-2.3,2.1-5,3.1-8,3.1h-20.5c1,10.9,1.6,23.3,1.6,37.1
		L493.6,178.7z"/>
	<path d="M585.4,305.3l-0.8-30.7c0-0.1,0.2-4.7,0.6-13.7c-1-3.4-3.2-33.5-6.3-90.2c-3.2-56.8-4.9-91.5-5.2-104.1c-0.5,0-1,0-1.6,0
		c-21.6-0.4-32.4-4.4-32.4-11.9c0-2.5,1.4-4.5,4.3-6.2c2.9-1.6,5.7-2.4,8.4-2.4l54.3,3.7l6.4-0.2c8.3,0,12.5,3.2,12.5,9.6
		c0,3.3-1.4,5.9-4.1,7.9c-2.7,2-5.8,3-9.2,3l-18.4-2.7l-0.8,4.1c0,25.3,2.2,63.1,6.6,113.5c4.4,50.4,6.6,88.3,6.6,113.7
		c0,3.1-1.4,5.9-4.3,8.3c-2.9,2.4-6,3.6-9.4,3.6L585.4,305.3z"/>
	<path d="M740.8,133.4l0.4,6.8c0,118.4-17.2,177.5-51.6,177.5c-13.3,0.1-23.1-5.3-29.5-16.2c-6.6-11.2-10.7-22.3-12.1-33.4
		c-2.2-17.1-3.5-36.6-3.8-58.7c-0.3-22.1-0.5-53.9-0.5-95.6L642,56.6c2.5-5.6,5.3-8.4,8.5-8.4c3.2,0,6,2.4,8.5,7.3
		c2.5,4.9,3.7,10.1,3.7,15.5v108.8c0,9.5,0.9,23.6,2.8,42.4c1.9,18.8,2.8,32.9,2.8,42.4c0,19.5,8.5,29.3,25.4,29.3
		c19,0,28.5-71.7,28.5-215V56.4l-0.2-6.6c0-3.1,0.7-5.5,2.1-7c1.4-1.6,3.9-2.3,7.5-2.3c3.6,0,6.3,0.6,8.1,1.8c1.7,1,2.9,2.6,3.7,4.7
		c1,3.3,1.6,7.6,1.8,12.9l-2.7,40.2L740.8,133.4z"/>
	<path d="M789.1,177.7l-0.4,43.4c0,35.3,2.5,63.1,7.6,83.4l-4.5,10.7h-11.1l-5.3-5.9c0.3-12,0.4-25.4,0.4-40.3
		c0-14.9-1.1-46.8-3.4-95.6c-2.3-48.8-3.4-85.3-3.4-109.4c0-12.6,4.4-18.9,13.3-18.9c13.9,0,25.7,3.6,35.2,10.9
		c9.5,7.3,14.3,17.7,14.3,31.3v28.1c0,7.7-1.4,14.7-4.3,21c-2.9,6.3-6.2,13-10,19.9c-3.8,7-5.9,10.8-6.3,11.6
		c1.4,6.5,4,19.3,7.6,38.3c7.8,41.5,16.5,71.4,26,89.6c2.7,5.2,4.1,9.3,4.1,12.2s-0.8,5.4-2.4,7.4c-1.6,2-3.8,3-6.5,3
		c-5.6,0-11-6.4-16.1-19.2c-5.1-12.8-9.3-27.1-12.4-42.7c-9.5-47.8-15.3-74.1-17.4-78.9H789.1z M790.6,60l-1.4,5.7
		c0,10.9,0.3,26.7,0.8,47.4c0.5,20.6,0.8,35.6,0.8,45c6.3-3.3,11.3-11.7,15.1-25.5c3.8-13.7,5.8-24.2,5.8-31.5
		c0-7.3-0.2-12.7-0.6-16.1c-0.4-3.4-1.2-7.3-2.5-11.4C806,64.8,800,60.4,790.6,60z"/>
	<path d="M964.5,133.4l0.4,6.8c0,118.4-17.2,177.5-51.6,177.5c-13.3,0.1-23.1-5.3-29.5-16.2c-6.6-11.2-10.7-22.3-12.1-33.4
		c-2.2-17.1-3.5-36.6-3.8-58.7c-0.3-22.1-0.5-53.9-0.5-95.6l-1.8-57.2c2.5-5.6,5.3-8.4,8.5-8.4c3.2,0,6,2.4,8.5,7.3
		c2.5,4.9,3.7,10.1,3.7,15.5v108.8c0,9.5,0.9,23.6,2.8,42.4c1.9,18.8,2.8,32.9,2.8,42.4c0,19.5,8.5,29.3,25.4,29.3
		c19,0,28.5-71.7,28.5-215V56.4l-0.2-6.6c0-3.1,0.7-5.5,2.1-7c1.4-1.6,3.9-2.3,7.5-2.3c3.6,0,6.3,0.6,8.1,1.8c1.7,1,2.9,2.6,3.7,4.7
		c1,3.3,1.6,7.6,1.8,12.9l-2.7,40.2L964.5,133.4z"/>
	<path d="M994.3,294.9l16.6,2.9c5.1,0,9.5-2.2,13.3-6.6c3.8-4.4,6.6-10,8.4-16.6c3.5-12.8,5.3-24.1,5.3-33.9
		c0-9.8-1.6-19.6-4.9-29.2c-3.3-9.6-7.3-18.6-12-26.9c-4.8-8.3-9.5-16.7-14.2-25.3c-11.2-20.3-16.8-40.2-16.8-59.8
		c0-12,2-22.6,6.1-31.8c7.5-17.2,17.6-25.8,30.1-25.8c4.7,0,9.1,1.5,13.4,4.5c4.2,3,6.3,6.3,6.3,9.8c0,6.1-3.3,9.2-9.8,9.2
		c-2.9,0-5.7-0.8-8.4-2.3c-8.5,0.4-14.2,9.8-17.2,28.3c-0.7,4-1,8.8-1,14.2c0,5.4,1.2,12.1,3.5,20c2.3,7.9,5.3,15,8.9,21.2
		c3.6,6.2,7.4,13,11.5,20.5c4.1,7.5,8,14.7,11.6,21.8c8.3,16.3,12.4,34.9,12.3,55.9c0.1,16.1-3.6,31.6-11.1,46.3
		c-3.6,7.3-8.8,13.3-15.5,17.9c-6.7,4.6-14.4,7-22.9,7.1v1c-10.9-1.6-16.9-6.7-18-15.4L994.3,294.9z"/>
</g>
</svg>
